<svg xmlns="http://www.w3.org/2000/svg" xmlns:xlink="http://www.w3.org/1999/xlink" x="0px" y="0px" viewBox="0 0 44 38" style="enable-background:new 0 0 44 38;" xml:space="preserve">
<path d="M20.2,30.4l8.2-10.7c0.3-0.4,0.4-1.2,0.1-1.7L23.8,7.8c-0.2-0.5-0.9-0.9-1.5-0.9l-13.1,0L0.4,18.4c-0.5,0.6-0.6,1.8-0.2,2.6l4.7,10.1l13.8,0C19.2,31.1,19.9,30.8,20.2,30.4z"/>
<path d="M43.8,17.5L36.4,1.5C36,0.7,35,0,34.1,0l-18,0c-0.9,0-2,0.5-2.5,1.1l-2,2.7l18,0c0.7,0,1.5,0.5,1.8,1.2l5.9,12.8c0.3,0.6,0.2,1.6-0.2,2.1L26.8,33.3c-0.4,0.5-1.3,0.9-2,0.9l-18.7,0l1.1,2.3C7.6,37.3,8.6,38,9.5,38l18.8,0c0.9,0,2-0.5,2.5-1.2l12.8-16.7C44,19.5,44.1,18.3,43.8,17.5z"/>
</svg>
