<svg width="316" height="84" viewBox="0 0 316 84" fill="none" xmlns="http://www.w3.org/2000/svg">
<path d="M9.77693 80.8318H0V18.4316H9.77693V23.0381C13.6269 19.1882 18.0035 17.2595 22.9068 17.2595C28.7299 17.2595 33.5294 19.4033 37.2903 23.6909C41.118 27.9489 43.0244 33.3269 43.0244 39.8177C43.0244 46.16 41.1254 51.4491 37.3274 55.6848C33.559 59.8834 28.8115 61.9901 23.07 61.9901C18.1148 61.9901 13.6788 60.0095 9.76951 56.0334V80.8392L9.77693 80.8318ZM33.0324 39.8622C33.0324 35.8045 31.9271 32.5035 29.7313 29.9517C27.4985 27.3703 24.6871 26.0869 21.2971 26.0869C17.7068 26.0869 14.7915 27.3332 12.5587 29.8256C10.3259 32.3181 9.21316 35.5894 9.21316 39.647C9.21316 43.6157 10.3259 46.8944 12.5587 49.4685C14.7618 51.9906 17.6548 53.2517 21.2526 53.2517C24.6426 53.2517 27.4392 51.9758 29.6423 49.424C31.9048 46.8722 33.0324 43.6899 33.0324 39.8622Z" fill="#081314"/>
<path d="M49.8638 39.2906C49.8638 33.1782 52.0521 27.9781 56.4287 23.6831C60.8053 19.3955 66.1314 17.2517 72.4219 17.2517C78.7346 17.2517 84.0978 19.4103 88.5041 23.7276C92.8511 28.0449 95.0246 33.3488 95.0246 39.6392C95.0246 45.9816 92.8362 51.3003 88.4596 55.5879C84.0533 59.8459 78.653 61.9748 72.2439 61.9748C65.9015 61.9748 60.5828 59.8014 56.2952 55.4544C52.0076 51.1668 49.8638 45.7739 49.8638 39.2832V39.2906ZM59.8558 39.4686C59.8558 43.6969 60.9834 47.0498 63.2458 49.5126C65.5603 52.005 68.6239 53.2513 72.4145 53.2513C76.2051 53.2513 79.2984 52.0199 81.5831 49.5571C83.8679 47.0943 85.0177 43.8081 85.0177 39.6912C85.0177 35.5742 83.8753 32.288 81.5831 29.8252C79.2613 27.3328 76.2051 26.0865 72.4145 26.0865C68.6758 26.0865 65.6493 27.3328 63.3274 29.8252C61.0056 32.3177 59.8484 35.5371 59.8484 39.476L59.8558 39.4686Z" fill="#081314"/>
<path d="M102.613 18.432H112.39V22.2151C114.185 20.331 115.78 19.0402 117.175 18.3504C118.592 17.6234 120.276 17.2673 122.219 17.2673C124.801 17.2673 127.493 18.1056 130.305 19.7895L125.824 28.743C123.97 27.4077 122.16 26.7401 120.394 26.7401C115.061 26.7401 112.398 30.7681 112.398 38.824V60.7739H102.621V18.432H102.613Z" fill="#081314"/>
<path d="M149.279 27.5562V60.7666H139.503V27.5562H135.326V18.432H139.495V2.91357H149.272V18.432H156.875V27.5562H149.272H149.279Z" fill="#081314"/>
<path d="M228.771 6.86704C228.682 9.0331 228.593 11.2733 228.504 13.5878C228.415 15.9022 228.341 18.2463 228.281 20.62C228.222 22.9938 228.192 25.3082 228.192 27.5633V32.9932V39.7585C228.192 42.9037 228.237 46.1379 228.326 49.4612C228.415 52.7845 228.548 56.6121 228.726 60.9443C227.539 60.8256 226.382 60.7662 225.255 60.7662H222.525C221.338 60.7662 220.166 60.7662 219.009 60.7662C217.852 60.7662 216.68 60.8256 215.493 60.9443C215.552 59.9948 215.641 58.6298 215.76 56.8495C215.878 55.0692 215.982 53.096 216.071 50.93C216.16 48.7639 216.249 46.4643 216.338 44.0312C216.427 41.5981 216.472 39.1353 216.472 36.6429V11.5404C216.056 11.7184 215.433 12.0151 214.602 12.4305C213.772 12.846 212.867 13.3059 211.888 13.8103C210.908 14.3147 209.914 14.8191 208.905 15.3236C207.897 15.828 206.977 16.2582 206.146 16.6143C205.493 15.7241 204.737 14.7895 203.876 13.8103C203.016 12.8311 202.318 12.1338 201.784 11.7184C206.413 10.0568 210.804 8.32097 214.959 6.51098C219.113 4.70099 222.762 2.60911 227.391 0.235352L229.082 0.94748C228.964 2.7278 228.86 4.70099 228.771 6.86704Z" fill="#081314"/>
<path d="M207.489 54.5575L206.398 54.4388C205.679 55.9075 203.72 57.762 201.643 57.7769C201.28 57.7472 200.931 57.7101 200.612 57.6508C199.93 57.5321 199.381 57.265 198.966 56.8496C198.55 56.4342 198.239 55.826 198.031 55.0248C197.823 54.2237 197.719 53.111 197.719 51.6867C197.719 48.4821 197.764 45.2627 197.853 42.0285C197.942 38.7942 197.986 35.2781 197.986 31.4801C197.986 28.8689 197.586 26.6435 196.785 24.8039C195.984 22.9642 194.856 21.4658 193.402 20.3086C191.948 19.1514 190.227 18.3057 188.239 17.7716C186.251 17.2375 184.07 16.9705 181.696 16.9705C178.848 16.9705 175.985 17.5046 173.106 18.5727C170.228 19.6409 167.543 21.1839 165.05 23.2016L166.208 28.5425H166.831C167.246 27.8898 167.854 27.2815 168.656 26.7177C169.457 26.1539 170.347 25.6347 171.326 25.1599C172.305 24.6852 173.329 24.3143 174.397 24.0472C175.465 23.7802 176.504 23.6467 177.513 23.6467C180.183 23.6467 182.275 24.4033 183.788 25.9166C185.302 27.4298 186.058 29.2547 186.058 31.3911C186.058 32.1625 185.954 32.8153 185.747 33.3494C185.539 33.8835 185.079 34.3731 184.367 34.8182C183.655 35.2632 182.572 35.7083 181.118 36.1534C179.664 36.5985 177.691 37.1178 175.198 37.7112C173.181 38.1859 171.371 38.7645 169.768 39.447C168.166 40.1295 166.786 40.9751 165.629 41.984C164.472 42.9928 163.582 44.2094 162.959 45.6336C162.335 47.0579 162.024 48.7492 162.024 50.7075C162.024 52.1318 162.261 53.5412 162.736 54.9358C163.211 56.3304 163.967 57.5766 165.006 58.6745C166.044 59.7723 167.365 60.618 168.967 61.2114C170.569 61.8049 172.498 62.1016 174.753 62.1016C177.483 62.1016 179.753 61.5378 181.563 60.4103C183.373 59.2827 184.96 57.7695 186.325 55.8705C187.037 57.8882 188.076 59.4311 189.441 60.4993C190.665 61.4562 192.215 61.9829 194.107 62.0793C194.107 62.0793 194.151 62.0793 194.174 62.0793C194.374 62.0867 194.582 62.1016 194.789 62.1016C195.205 62.1016 195.605 62.0793 195.998 62.0497C206.435 61.4859 207.496 54.5649 207.496 54.5649L207.489 54.5575ZM186.192 41.5834C186.162 42.9186 186.147 44.8621 186.147 47.4139C186.147 50.3218 185.539 52.5175 184.322 54.0011C183.106 55.4847 181.518 56.2265 179.56 56.2265C178.017 56.2265 176.786 55.6479 175.866 54.4907C174.946 53.3335 174.486 51.657 174.486 49.4613C174.486 47.2656 174.857 45.4853 175.599 44.2984C176.341 43.1115 177.29 42.1768 178.447 41.4944C179.605 40.8119 180.88 40.2481 182.275 39.8031C183.67 39.358 184.99 38.7794 186.236 38.0673C186.236 39.0761 186.221 40.2481 186.192 41.5834Z" fill="#081314"/>
<path d="M313.04 18.4685C312.446 18.5575 308.433 18.565 307.84 18.565C307.246 18.565 306.415 18.5204 305.852 18.4314C305.288 18.3424 304.68 18.2386 304.027 18.1199C303.255 20.553 302.499 22.8674 301.757 25.0631C301.015 27.2589 300.244 29.4546 299.442 31.6503C298.641 33.846 297.796 36.1159 296.906 38.46C296.015 40.8041 295.036 43.3411 293.968 46.0709C292.069 41.3827 290.244 36.7242 288.494 32.0954C286.743 27.4666 285.007 22.808 283.286 18.1199C282.159 18.2386 281.061 18.3424 279.992 18.4314C278.924 18.5204 277.826 18.565 276.699 18.565C275.571 18.565 274.459 18.5204 273.361 18.4314C272.263 18.3424 271.15 18.2386 270.023 18.1199C270.735 19.9002 271.788 22.4817 273.183 25.8643C274.577 29.2469 276.12 32.9855 277.812 37.0803C279.503 41.175 281.224 45.3588 282.975 49.6315C284.725 53.9043 285.986 56.9531 287.41 60.3357C285.652 66.641 283.642 71.2402 281.617 74.2C277.478 80.2308 270.653 80.891 266.67 75.8171L264.444 75.8616C264.444 75.8616 268.732 83.2351 276.944 83.2351C278.635 83.2351 285.615 82.8493 290.823 73.9997C292.996 70.3055 296.06 63.0062 297.989 58.407C299.917 53.8079 301.95 49.2532 303.849 44.7431C305.748 40.2329 307.543 36.1234 309.116 32.4144C310.688 28.7054 312.098 25.5898 313.203 23.0677C314.301 20.5456 315.109 18.8988 315.406 18.1273C314.694 18.246 313.626 18.3869 313.032 18.4759L313.04 18.4685Z" fill="#081314"/>
<path d="M261.217 6.86704C261.128 9.0331 261.039 11.2733 260.95 13.5878C260.861 15.9022 260.787 18.2463 260.728 20.62C260.668 22.9938 260.639 25.3082 260.639 27.5633V32.9932V39.7585C260.639 42.9037 260.683 46.1379 260.772 49.4612C260.861 52.7845 260.995 56.6121 261.173 60.9443C259.986 60.8256 258.829 60.7662 257.701 60.7662H254.971C253.784 60.7662 252.612 60.7662 251.455 60.7662C250.298 60.7662 249.126 60.8256 247.939 60.9443C247.998 59.9948 248.087 58.6298 248.206 56.8495C248.325 55.0692 248.429 53.096 248.518 50.93C248.607 48.7639 248.696 46.4643 248.785 44.0312C248.874 41.5981 248.918 39.1353 248.918 36.6429V11.5404C248.503 11.7184 247.88 12.0151 247.049 12.4305C246.218 12.846 245.313 13.3059 244.334 13.8103C243.355 14.3147 242.361 14.8191 241.352 15.3236C240.343 15.828 239.423 16.2582 238.592 16.6143C237.939 15.7241 237.183 14.7895 236.322 13.8103C235.462 12.8311 234.765 12.1338 234.23 11.7184C238.859 10.0568 243.251 8.32097 247.405 6.51098C251.559 4.70099 255.209 2.60911 259.837 0.235352L261.529 0.94748C261.41 2.7278 261.306 4.70099 261.217 6.86704Z" fill="#081314"/>
</svg>
